<?xml version="1.0" encoding="UTF-8"?>
<svg version="1.1" viewBox="0 0 1826.8 335.89"
  xmlns="http://www.w3.org/2000/svg">
  <g transform="matrix(1.3333 0 0 -1.3333 0 335.89)">
    <g transform="scale(.1)" fill="#00adef">
      <path d="m1762.6 1607.2-73.86-346.4c-119.71-565.46-287.83-682.63-967.91-682.63-611.31 0-817.63 106.98-680.08 753.96l91.695 438.09c135 636.8 410.09 748.86 1001 748.86 466.13 0 838.01 22.93 692.83-590.93h-364.25c61.14 280.18-76.41 277.64-394.8 277.64-427.92 0-483.95-66.22-568.01-435.57l-91.696-438.09c-81.508-399.9-28.011-440.65 379.53-440.65 348.95 0 458.48 7.617 534.89 369.32l12.74 68.77h-481.4l61.121 277.63h848.19"/>
      <path d="m2129.5 593.49h-320.93l404.99 1910.3h320.94l-405-1910.3"/>
      <path d="m2863.1 1258.3c-73.86-356.6-68.77-435.56 216.51-435.56s326.04 78.961 399.9 435.56c78.96 361.69 71.32 443.2-213.96 443.2-285.27 0-323.48-81.51-402.45-443.2zm939.9 2.54c-109.53-517.07-216.51-682.63-774.32-682.63-557.83 0-593.49 165.56-483.97 682.63 109.54 519.62 216.51 685.18 774.33 685.18 557.83 0 593.48-165.56 483.96-685.18"/>
      <path d="m4391.4 1301.6c-66.22-318.39-109.52-478.86 219.06-478.86 292.92 0 323.49 175.75 387.16 478.86 71.32 336.21 20.38 399.9-201.22 399.9-277.64 0-343.87-114.62-405-399.9zm-66.22 1202.2h320.93l-157.91-751.39h12.73c101.89 163.01 280.19 193.58 443.2 193.58 458.48 0 458.48-252.17 374.43-644.42-86.61-410.08-168.11-723.39-664.81-723.39-188.48 0-328.57 40.762-371.87 216.51h-10.2l-30.56-201.22h-320.94l405 1910.3"/>
      <path d="m5802.5 1003.6c-40.75-188.49 33.13-206.31 249.63-206.31 170.65 0 298.01 15.277 338.77 206.31 40.75 185.94-96.79 191.04-254.72 191.04-163.02 0-292.93 0-333.68-191.04zm550.19-241.97h-7.64c-101.88-178.3-298.02-183.4-453.4-183.4-303.1 0-486.49 63.68-410.08 425.37 68.76 320.94 254.71 410.09 585.84 410.09 163.02 0 323.49-2.55 369.33-152.83h10.19l35.66 173.21c45.84 216.5 45.84 292.91-221.6 292.91-140.1 0-254.72-12.74-292.92-185.94h-320.94c84.06 389.72 354.06 405 659.7 405 427.93 0 590.95-66.22 496.7-514.52l-178.3-838h-320.94l48.4 168.11"/>
      <path d="m7267.2 593.49h-320.95l405 1910.3h320.92l-404.97-1910.3"/>
      <path d="m9144.4 593.49h-458.48l-10.17 1074.9h-7.65l-466.11-1074.9h-466.14l-17.83 1337.2h315.84l-12.74-1118.2h7.65l499.25 1118.2h399.88l17.84-1118.2h10.19l468.65 1118.2h310.77l-590.95-1337.2"/>
      <path d="m9972.3 1003.6c-40.77-188.49 33.13-206.31 249.63-206.31 170.7 0 298 15.277 338.8 206.31 40.7 185.94-96.8 191.04-254.8 191.04-163 0-292.9 0-333.63-191.04zm550.13-241.97h-7.6c-101.9-178.3-298-183.4-453.4-183.4-303.09 0-486.5 63.68-410.08 425.37 68.77 320.94 254.73 410.09 585.88 410.09 163 0 323.5-2.55 369.3-152.83h10.2l35.6 173.21c45.9 216.5 45.9 292.91-221.6 292.91-140.1 0-254.7-12.74-292.9-185.94h-320.92c84.05 389.72 354.02 405 659.72 405 427.9 0 590.9-66.22 496.7-514.52l-178.3-838h-321l48.4 168.11"/>
      <path d="m11847 539.99c-140.1-303.1-252.2-539.99-626.6-539.99-45.9 0-89.2 7.6406-135 10.191l53.5 241.98c20.4-2.551 43.3-7.652 66.2-7.652 201.2 0 272.5 193.59 333.7 348.97h-155.4l-155.4 1337.2h331.1l96.8-1138.6h5.1l501.8 1138.6h326.1l-641.9-1390.7"/>
      <path d="m13368 1566.5c35.7 160.47-48.4 160.47-219 160.47-170.7 0-287.9 0-326.1-175.75-28-132.45 5.1-137.54 282.8-150.27 313.2-15.29 598.5 7.64 506.8-425.37-76.4-361.69-369.3-397.36-708.1-397.36-364.2 0-608.7 0-517 435.56h320.9c-35.6-193.58 5.1-216.5 242-216.5 191 0 303.1-5.114 341.3 178.3 25.5 117.16 30.6 175.74-292.9 180.84-489 7.65-565.5 73.87-491.6 415.18 76.4 366.79 343.8 374.43 687.7 374.43 262.4 0 573.1-5.1 494.2-379.53h-321"/>
    </g>
  </g>
</svg>
