<?xml version="1.0" encoding="UTF-8"?>
<svg width="24.776" height="25.88" fill="none" style="-webkit-print-color-adjust:exact" version="1.1" viewBox="475 -78 247.76 258.8"
  xmlns="http://www.w3.org/2000/svg">
  <g class="fills">
    <path rx="0" ry="0" d="m710.02 43.599-9.848 46.186c-15.962 75.395-38.378 91.018-129.06 91.018-81.509 0-109.02-14.264-90.677-100.53l12.226-58.412c18-84.907 54.679-99.848 133.47-99.848 62.151 0 111.74-3.058 92.378 78.79h-48.567c8.152-37.357-10.188-37.018-52.64-37.018-57.056 0-64.526 8.829-75.735 58.076l-12.226 58.412c-10.867 53.32-3.734 58.753 50.604 58.753 46.526 0 61.13-1.016 71.318-49.243l1.699-9.169h-64.187l8.15-37.017h113.09z" fill="#009eff"/>
  </g>
</svg>
